<svg width="77" height="58" viewBox="0 0 77 58" fill="none" xmlns="http://www.w3.org/2000/svg">
<path d="M73.1875 3.02083V1H73.3906C74.8345 1 76 2.16435 76 3.625V54.375C76 55.8356 74.8345 57 73.3906 57H73.1875V54.9792C73.1875 53.4341 71.9317 52.1667 70.3828 52.1667H64.3672C62.8183 52.1667 61.5625 53.4341 61.5625 54.9792V57H15.4375V54.9792C15.4375 53.4341 14.1817 52.1667 12.6328 52.1667H6.61719C5.06826 52.1667 3.8125 53.4341 3.8125 54.9792V57H3.60938C2.16553 57 1 55.8356 1 54.375V3.625C1 2.16435 2.16553 1 3.60938 1H3.8125V3.02083C3.8125 4.56592 5.06826 5.83333 6.61719 5.83333H12.6328C14.1817 5.83333 15.4375 4.56592 15.4375 3.02083V1H61.5625V3.02083C61.5625 4.56592 62.8183 5.83333 64.3672 5.83333H70.3828C71.9317 5.83333 73.1875 4.56592 73.1875 3.02083ZM12.6328 49.3333C14.1817 49.3333 15.4375 48.0659 15.4375 46.5208V40.4792C15.4375 38.9341 14.1817 37.6667 12.6328 37.6667H6.61719C5.06826 37.6667 3.8125 38.9341 3.8125 40.4792V46.5208C3.8125 48.0659 5.06826 49.3333 6.61719 49.3333H12.6328ZM12.6328 34.8333C14.1817 34.8333 15.4375 33.5659 15.4375 32.0208V25.9792C15.4375 24.4341 14.1817 23.1667 12.6328 23.1667H6.61719C5.06826 23.1667 3.8125 24.4341 3.8125 25.9792V32.0208C3.8125 33.5659 5.06826 34.8333 6.61719 34.8333H12.6328ZM12.6328 20.3333C14.1817 20.3333 15.4375 19.0659 15.4375 17.5208V11.4792C15.4375 9.93408 14.1817 8.66667 12.6328 8.66667H6.61719C5.06826 8.66667 3.8125 9.93408 3.8125 11.4792V17.5208C3.8125 19.0659 5.06826 20.3333 6.61719 20.3333H12.6328ZM53.5391 51.75C55.088 51.75 56.3438 50.4826 56.3438 48.9375V34.4375C56.3438 32.8924 55.088 31.625 53.5391 31.625H23.4609C21.912 31.625 20.6562 32.8924 20.6562 34.4375V48.9375C20.6562 50.4826 21.912 51.75 23.4609 51.75H53.5391ZM53.5391 26.375C55.088 26.375 56.3438 25.1076 56.3438 23.5625V9.0625C56.3438 7.51742 55.088 6.25 53.5391 6.25H23.4609C21.912 6.25 20.6562 7.51742 20.6562 9.0625V23.5625C20.6562 25.1076 21.912 26.375 23.4609 26.375H53.5391ZM70.3828 49.3333C71.9317 49.3333 73.1875 48.0659 73.1875 46.5208V40.4792C73.1875 38.9341 71.9317 37.6667 70.3828 37.6667H64.3672C62.8183 37.6667 61.5625 38.9341 61.5625 40.4792V46.5208C61.5625 48.0659 62.8183 49.3333 64.3672 49.3333H70.3828ZM70.3828 34.8333C71.9317 34.8333 73.1875 33.5659 73.1875 32.0208V25.9792C73.1875 24.4341 71.9317 23.1667 70.3828 23.1667H64.3672C62.8183 23.1667 61.5625 24.4341 61.5625 25.9792V32.0208C61.5625 33.5659 62.8183 34.8333 64.3672 34.8333H70.3828ZM70.3828 20.3333C71.9317 20.3333 73.1875 19.0659 73.1875 17.5208V11.4792C73.1875 9.93408 71.9317 8.66667 70.3828 8.66667H64.3672C62.8183 8.66667 61.5625 9.93408 61.5625 11.4792V17.5208C61.5625 19.0659 62.8183 20.3333 64.3672 20.3333H70.3828Z" fill="#ADD8E6" fill-opacity="0.5" stroke="#ADD8E6" stroke-width="2"/>
</svg>
