<svg width="76" height="65" viewBox="0 0 76 65" fill="none" xmlns="http://www.w3.org/2000/svg">
<path d="M9.5 61.5V25C9.5 23.8954 10.3954 23 11.5 23H26.085C26.9329 23 27.6887 22.4653 27.971 21.6656L30.029 15.8344C30.3113 15.0347 31.0671 14.5 31.915 14.5H46.6606C47.4711 14.5 48.2014 14.9891 48.51 15.7385L50.99 21.7615C51.2986 22.5109 52.0289 23 52.8394 23H66.5C67.6046 23 68.5 23.8954 68.5 25V61.5C68.5 62.6046 67.6046 63.5 66.5 63.5H11.5C10.3954 63.5 9.5 62.6046 9.5 61.5Z" fill="#ADD8E6" fill-opacity="0.5" stroke="#ADD8E6" stroke-width="2"/>
<circle cx="39" cy="42" r="17" fill="white" stroke="#ADD8E6" stroke-width="2"/>
<circle cx="39" cy="42" r="11" fill="#ADD8E6" stroke="#ADD8E6" stroke-width="2"/>
<circle cx="60.5" cy="28.5" r="3" stroke="#ADD8E6"/>
<line x1="9" y1="36" x2="23" y2="36" stroke="#ADD8E6" stroke-width="2"/>
<line x1="55" y1="36" x2="69" y2="36" stroke="#ADD8E6" stroke-width="2"/>
<line x1="55" y1="48" x2="60" y2="48" stroke="#ADD8E6" stroke-width="2"/>
<line x1="63" y1="48" x2="68" y2="48" stroke="#ADD8E6" stroke-width="2"/>
<line x1="9" y1="48" x2="23" y2="48" stroke="#ADD8E6" stroke-width="2"/>
<path d="M15 23V19C15 17.8954 15.8954 17 17 17H21.5C22.6046 17 23.5 17.8954 23.5 19V23" stroke="#ADD8E6" stroke-width="2"/>
<line y1="18" x2="8" y2="18" stroke="#ADD8E6" stroke-width="2"/>
<line x1="19" y1="8" x2="19" stroke="#ADD8E6" stroke-width="2"/>
<line x1="10.9498" y1="10.364" x2="5.2929" y2="4.70711" stroke="#ADD8E6" stroke-width="2"/>
<path d="M63.872 8.45852C62.4616 8.52906 61.1816 8.94688 60.4553 10.4355C60.3726 10.6053 60.174 10.7084 59.9423 10.7084C59.5518 10.7084 58.3442 9.95176 58 9.7691C58.0004 12.0209 59.3338 14 62.5003 14C65.1672 14 67.0002 12.8032 67.0002 10.7136C67.0002 10.6285 66.9773 10.5473 66.9661 10.4639L63.872 8.45852ZM74.0977 0C73.5648 0 73.0652 0.183477 72.6841 0.449805C65.498 5.44277 64.7502 5.56008 64.7502 7.0298C64.7502 7.40441 64.8645 7.76152 65.0571 8.08801L67.3008 9.54215C67.5542 9.59137 67.8154 9.625 68.0879 9.625C70.2714 9.625 71.537 8.38168 75.5113 2.61242C75.7708 2.22004 76 1.79621 76 1.35488C76 0.564375 75.086 0 74.0977 0Z" fill="#ADD8E6"/>
</svg>
