<svg width="71" height="89" viewBox="0 0 71 89" fill="none" xmlns="http://www.w3.org/2000/svg">
<rect x="13" y="24" width="48" height="36" rx="1" fill="#ADD8E6" fill-opacity="0.5" stroke="#ADD8E6" stroke-width="2"/>
<rect x="61" y="34" width="9" height="15" rx="1" fill="#ADD8E6" fill-opacity="0.5" stroke="#ADD8E6" stroke-width="2"/>
<circle cx="24" cy="12" r="11" stroke="#ADD8E6" stroke-width="2"/>
<path d="M59 12C59 18.0371 53.8901 23 47.5 23C41.1099 23 36 18.0371 36 12C36 5.96295 41.1099 1 47.5 1C53.8901 1 59 5.96295 59 12Z" stroke="#ADD8E6" stroke-width="2"/>
<circle cx="48" cy="12" r="6" fill="#ADD8E6"/>
<circle cx="24" cy="12" r="6" fill="#ADD8E6"/>
<path d="M3.40079 30.4911L10.4008 31.9229C11.3316 32.1133 12 32.9322 12 33.8823V50.1177C12 51.0678 11.3316 51.8867 10.4008 52.0771L3.40079 53.5089C2.16081 53.7626 1 52.8152 1 51.5495V32.4505C1 31.1848 2.16081 30.2374 3.40079 30.4911Z" fill="#ADD8E6" fill-opacity="0.5" stroke="#ADD8E6" stroke-width="2"/>
<path d="M15 87.25L27.3509 61H46.6491L59 88H50.5088L40.4737 67V88H32.7544V68.5L23.4912 87.25H15Z" fill="#ADD8E6" fill-opacity="0.5" stroke="#ADD8E6" stroke-width="2"/>
<path d="M39.0192 35.4805L39.0187 35.481L38.2107 36.2966L37.5003 37.0137L36.7899 36.2966L35.9819 35.481L35.9807 35.4798C34.2456 33.7226 31.4847 33.492 29.6801 34.9982C27.5585 36.7723 27.4457 39.9583 29.3445 41.8811L37.2802 49.908L39.0192 35.4805ZM39.0192 35.4805C40.7589 33.7221 43.516 33.4924 45.3202 34.998L39.0192 35.4805ZM45.6525 41.8807L45.6527 41.8805C47.5548 39.9576 47.442 36.772 45.3203 34.998L45.6525 41.8807ZM45.6525 41.8807L37.7163 49.908M45.6525 41.8807L37.7163 49.908M37.7163 49.908L37.7161 49.9082C37.5949 50.0306 37.4016 50.0306 37.2804 49.9082L37.7163 49.908Z" fill="white" stroke="#ADD8E6" stroke-width="2"/>
</svg>
