<svg
  width="71"
  height="65"
  viewBox="0 0 71 65"
  fill="none"
  xmlns="http://www.w3.org/2000/svg"
>
<path
    d="M9.5 61.5V25C9.5 23.8954 10.3954 23 11.5 23H26.085C26.9329 23 27.6887 22.4653 27.971 21.6656L30.029 15.8344C30.3113 15.0347 31.0671 14.5 31.915 14.5H46.6606C47.4711 14.5 48.2014 14.9891 48.51 15.7385L50.99 21.7615C51.2986 22.5109 52.0289 23 52.8394 23H66.5C67.6046 23 68.5 23.8954 68.5 25V61.5C68.5 62.6046 67.6046 63.5 66.5 63.5H11.5C10.3954 63.5 9.5 62.6046 9.5 61.5Z"
    fill="#ADD8E6"
    fill-opacity="0.5"
    stroke="#ADD8E6"
    stroke-width="2"
  />
<circle cx="39" cy="42" r="17" fill="white" stroke="#ADD8E6" stroke-width="2" />
<circle
    cx="39"
    cy="42"
    r="11"
    fill="#ADD8E6"
    stroke="#ADD8E6"
    stroke-width="2"
  />
<circle cx="60.5" cy="28.5" r="3" stroke="#ADD8E6" />
<line x1="9" y1="36" x2="23" y2="36" stroke="#ADD8E6" stroke-width="2" />
<line x1="55" y1="36" x2="69" y2="36" stroke="#ADD8E6" stroke-width="2" />
<line x1="55" y1="48" x2="60" y2="48" stroke="#ADD8E6" stroke-width="2" />
<line x1="63" y1="48" x2="68" y2="48" stroke="#ADD8E6" stroke-width="2" />
<line x1="9" y1="48" x2="23" y2="48" stroke="#ADD8E6" stroke-width="2" />
<path
    d="M15 23V19C15 17.8954 15.8954 17 17 17H21.5C22.6046 17 23.5 17.8954 23.5 19V23"
    stroke="#ADD8E6"
    stroke-width="2"
  />
<line y1="18" x2="8" y2="18" stroke="#ADD8E6" stroke-width="2" />
<line x1="19" y1="8" x2="19" stroke="#ADD8E6" stroke-width="2" />
<line
    x1="10.9498"
    y1="10.364"
    x2="5.2929"
    y2="4.70711"
    stroke="#ADD8E6"
    stroke-width="2"
  />
<path
    d="M70.2 2H59C58.7878 2 58.5843 2.07243 58.4343 2.20136C58.2843 2.3303 58.2 2.50516 58.2 2.6875V4.75H62.2V3.375H67V10.25H70.2C70.4122 10.25 70.6157 10.1776 70.7657 10.0486C70.9157 9.9197 71 9.74484 71 9.5625V2.6875C71 2.50516 70.9157 2.3303 70.7657 2.20136C70.6157 2.07243 70.4122 2 70.2 2ZM60.8 4.21289C60.8 4.26417 60.7763 4.31335 60.7341 4.34962C60.6919 4.38588 60.6347 4.40625 60.575 4.40625H59.825C59.7653 4.40625 59.7081 4.38588 59.6659 4.34962C59.6237 4.31335 59.6 4.26417 59.6 4.21289V3.56836C59.6 3.51708 59.6237 3.4679 59.6659 3.43163C59.7081 3.39537 59.7653 3.375 59.825 3.375H60.575C60.6347 3.375 60.6919 3.39537 60.7341 3.43163C60.7763 3.4679 60.8 3.51708 60.8 3.56836V4.21289ZM69.6 8.68164C69.6 8.73292 69.5763 8.7821 69.5341 8.81837C69.4919 8.85463 69.4347 8.875 69.375 8.875H68.625C68.5653 8.875 68.5081 8.85463 68.4659 8.81837C68.4237 8.7821 68.4 8.73292 68.4 8.68164V8.03711C68.4 7.98583 68.4237 7.93665 68.4659 7.90038C68.5081 7.86412 68.5653 7.84375 68.625 7.84375H69.375C69.4347 7.84375 69.4919 7.86412 69.5341 7.90038C69.5763 7.93665 69.6 7.98583 69.6 8.03711V8.68164ZM69.6 6.44727C69.6 6.49855 69.5763 6.54773 69.5341 6.58399C69.4919 6.62025 69.4347 6.64062 69.375 6.64062H68.625C68.5653 6.64062 68.5081 6.62025 68.4659 6.58399C68.4237 6.54773 68.4 6.49855 68.4 6.44727V5.80273C68.4 5.75145 68.4237 5.70227 68.4659 5.66601C68.5081 5.62975 68.5653 5.60938 68.625 5.60938H69.375C69.4347 5.60938 69.4919 5.62975 69.5341 5.66601C69.5763 5.70227 69.6 5.75145 69.6 5.80273V6.44727ZM69.6 4.21289C69.6 4.26417 69.5763 4.31335 69.5341 4.34962C69.4919 4.38588 69.4347 4.40625 69.375 4.40625H68.625C68.5653 4.40625 68.5081 4.38588 68.4659 4.34962C68.4237 4.31335 68.4 4.26417 68.4 4.21289V3.56836C68.4 3.51708 68.4237 3.4679 68.4659 3.43163C68.5081 3.39537 68.5653 3.375 68.625 3.375H69.375C69.4347 3.375 69.4919 3.39537 69.5341 3.43163C69.5763 3.4679 69.6 3.51708 69.6 3.56836V4.21289ZM65.4 5.4375H55.8C55.5878 5.4375 55.3843 5.50993 55.2343 5.63886C55.0843 5.7678 55 5.94266 55 6.125V12.3125C55 12.4948 55.0843 12.6697 55.2343 12.7986C55.3843 12.9276 55.5878 13 55.8 13H65.4C65.6122 13 65.8157 12.9276 65.9657 12.7986C66.1157 12.6697 66.2 12.4948 66.2 12.3125V6.125C66.2 5.94266 66.1157 5.7678 65.9657 5.63886C65.8157 5.50993 65.6122 5.4375 65.4 5.4375ZM57.4 6.8125C57.5582 6.8125 57.7129 6.85282 57.8445 6.92836C57.976 7.00391 58.0786 7.11128 58.1391 7.23691C58.1997 7.36253 58.2155 7.50076 58.1846 7.63412C58.1538 7.76749 58.0776 7.88999 57.9657 7.98614C57.8538 8.08228 57.7113 8.14776 57.5561 8.17429C57.4009 8.20082 57.24 8.1872 57.0939 8.13517C56.9477 8.08313 56.8227 7.99501 56.7348 7.88196C56.6469 7.7689 56.6 7.63597 56.6 7.5C56.6 7.31766 56.6843 7.1428 56.8343 7.01386C56.9843 6.88493 57.1878 6.8125 57.4 6.8125ZM64.6 11.625H56.6V10.9375L58.2 9.5625L59 10.25L62.2 7.5L64.6 9.5625V11.625Z"
    fill="#ADD8E6"
  />
</svg>
